<?xml version="1.0" encoding="UTF-8" standalone="no"?>
<!DOCTYPE svg PUBLIC "-//W3C//DTD SVG 1.1//EN" "http://www.w3.org/Graphics/SVG/1.1/DTD/svg11.dtd">
<svg width="100%" height="100%" viewBox="0 0 664 498" version="1.1" xmlns="http://www.w3.org/2000/svg" xmlns:xlink="http://www.w3.org/1999/xlink" xml:space="preserve" xmlns:serif="http://www.serif.com/" style="fill-rule:evenodd;clip-rule:evenodd;stroke-linejoin:round;stroke-miterlimit:2;">
    <g transform="matrix(1,0,0,1,-2647.34227,-194.406223)">
        <g transform="matrix(1,0,0,1,7.388728,0)">
            <g transform="matrix(1,0,0,1.367986,0,-71.538691)">
                <path d="M2787.329,558.234C2758.719,558.234 2731.162,554.695 2704.657,547.617C2678.151,540.534 2656.584,531.349 2639.954,520.062L2672.516,446.781C2688.256,456.969 2706.401,465.237 2726.954,471.586C2747.506,477.935 2767.86,481.109 2788.016,481.109C2801.834,481.109 2812.844,479.922 2821.047,477.547C2829.256,475.167 2835.274,471.836 2839.102,467.555C2842.93,463.273 2844.844,458.305 2844.844,452.648C2844.844,444.763 2841.24,438.497 2834.032,433.852C2826.829,429.2 2817.347,425.367 2805.586,422.352C2793.826,419.331 2780.907,416.325 2766.829,413.336C2752.75,410.346 2738.612,406.544 2724.414,401.93C2710.222,397.315 2697.245,391.253 2685.485,383.742C2673.724,376.232 2664.24,366.331 2657.032,354.039C2649.829,341.742 2646.227,326.26 2646.227,307.594C2646.227,286.859 2651.948,267.937 2663.391,250.828C2674.834,233.719 2692.042,220.039 2715.016,209.789C2737.995,199.534 2766.761,194.406 2801.313,194.406C2824.047,194.406 2846.5,196.958 2868.672,202.062C2890.844,207.167 2910.581,214.833 2927.883,225.062L2897.657,298.148C2880.943,289.169 2864.425,282.49 2848.102,278.109C2831.784,273.724 2815.907,271.531 2800.469,271.531C2786.86,271.531 2775.894,272.945 2767.571,275.773C2759.248,278.596 2753.256,282.349 2749.594,287.031C2745.938,291.708 2744.11,296.924 2744.11,302.68C2744.11,310.336 2747.711,316.432 2754.914,320.969C2762.123,325.5 2771.605,329.193 2783.36,332.047C2795.12,334.896 2808.097,337.784 2822.289,340.711C2836.487,343.633 2850.625,347.378 2864.704,351.945C2878.787,356.508 2891.709,362.518 2903.469,369.977C2915.23,377.435 2924.711,387.255 2931.914,399.437C2939.123,411.615 2942.727,426.87 2942.727,445.203C2942.727,465.604 2936.98,484.359 2925.485,501.469C2913.99,518.578 2896.784,532.318 2873.868,542.687C2850.956,553.052 2822.11,558.234 2787.329,558.234Z" style="fill:url(#_Linear1);fill-rule:nonzero;"/>
            </g>
            <g transform="matrix(1,0,0,1.367986,0,-71.538691)">
                <path d="M2988.243,551.32L2988.243,201.32L3147.899,201.32C3179.946,201.32 3207.599,206.526 3230.86,216.937C3254.125,227.344 3272.076,242.258 3284.711,261.68C3297.352,281.096 3303.672,304.096 3303.672,330.68C3303.672,357.164 3297.352,380.06 3284.711,399.367C3272.076,418.669 3254.125,433.583 3230.86,444.109C3207.599,454.63 3179.946,459.891 3147.899,459.891L3043.188,459.891L3087.313,416.68L3087.313,551.32L2988.243,551.32ZM3087.313,427.508L3043.188,381.766L3142.102,381.766C3162.784,381.766 3178.23,377.247 3188.438,368.211C3198.651,359.169 3203.758,346.659 3203.758,330.68C3203.758,314.602 3198.651,302.044 3188.438,293.008C3178.23,283.966 3162.784,279.445 3142.102,279.445L3043.188,279.445L3087.313,233.703L3087.313,427.508Z" style="fill:url(#_Linear2);fill-rule:nonzero;"/>
            </g>
        </g>
    </g>
    <defs>
        <linearGradient id="_Linear1" x1="0" y1="0" x2="1" y2="0" gradientUnits="userSpaceOnUse" gradientTransform="matrix(663.71875,2.103554,-2.877632,485.179631,2639.953542,345.92663)"><stop offset="0" style="stop-color:rgb(65,22,204);stop-opacity:1"/><stop offset="1" style="stop-color:rgb(197,57,194);stop-opacity:1"/></linearGradient>
        <linearGradient id="_Linear2" x1="0" y1="0" x2="1" y2="0" gradientUnits="userSpaceOnUse" gradientTransform="matrix(663.71875,2.103554,-2.877632,485.179631,2639.953542,345.92663)"><stop offset="0" style="stop-color:rgb(65,22,204);stop-opacity:1"/><stop offset="1" style="stop-color:rgb(197,57,194);stop-opacity:1"/></linearGradient>
    </defs>
</svg>
